<?xml version="1.0" encoding="UTF-8" standalone="no"?>
<!DOCTYPE svg PUBLIC "-//W3C//DTD SVG 1.1//EN" "http://www.w3.org/Graphics/SVG/1.1/DTD/svg11.dtd">
<svg xmlns="http://www.w3.org/2000/svg" version="1.1" viewBox="0.00 0.00 574.00 96.00">
<path fill="#ffffff" d="
  M 55.29 75.23
  Q 72.27 75.30 89.25 75.24
  Q 97.36 75.21 105.65 69.37
  C 117.13 61.29 117.98 46.86 118.62 34.49
  Q 118.65 34.01 119.07 34.24
  Q 128.79 39.50 133.96 46.81
  C 144.15 61.21 126.91 85.34 112.51 91.02
  C 105.15 93.92 95.05 94.59 85.63 94.83
  C 66.80 95.31 47.88 96.31 29.04 95.40
  Q 28.40 95.37 28.53 94.74
  Q 29.86 88.59 33.84 74.33
  Q 40.46 50.61 46.28 26.28
  Q 46.48 25.43 45.61 25.45
  C 26.99 25.88 11.17 14.79 0.40 0.91
  Q -0.08 0.28 0.71 0.28
  Q 56.31 0.18 111.81 0.29
  Q 115.95 0.30 119.35 1.39
  C 131.67 5.37 145.78 11.18 145.50 26.75
  Q 145.29 38.20 142.13 49.73
  Q 141.65 51.49 141.30 49.70
  C 139.17 38.60 125.13 29.44 115.37 26.92
  Q 109.92 25.51 95.49 25.51
  Q 77.01 25.50 58.55 25.48
  A 0.47 0.46 -82.8 0 0 58.10 25.83
  L 45.72 74.52
  A 0.59 0.58 -83.0 0 0 46.28 75.25
  L 51.76 75.25
  A 0.51 0.51 0.0 0 0 51.99 74.29
  Q 49.62 73.10 50.30 70.26
  Q 54.36 53.35 58.35 36.42
  Q 59.37 32.11 60.88 27.96
  A 0.79 0.78 7.5 0 1 61.56 27.44
  L 64.96 27.19
  Q 65.55 27.14 65.97 27.56
  Q 67.91 29.48 67.49 31.25
  Q 62.58 51.98 57.52 72.67
  Q 57.40 73.18 56.96 73.47
  L 55.13 74.69
  Q 54.33 75.22 55.29 75.23
  Z"
/>
<path fill="#ffffff" d="
  M 408.85 24.00
  L 396.39 24.00
  A 0.44 0.44 0.0 0 1 395.96 23.49
  L 398.38 9.14
  A 0.44 0.44 0.0 0 1 398.81 8.78
  L 411.29 8.69
  A 0.44 0.44 0.0 0 1 411.72 9.21
  L 409.28 23.63
  A 0.44 0.44 0.0 0 1 408.85 24.00
  Z"
/>
<path fill="#ffffff" d="
  M 166.85 77.85
  C 171.84 76.00 173.01 69.49 173.77 65.00
  Q 178.45 37.45 183.19 9.91
  Q 183.31 9.25 183.98 9.25
  L 197.01 9.25
  A 0.64 0.64 0.0 0 1 197.64 9.99
  Q 192.54 39.40 187.23 68.69
  C 184.08 86.10 173.79 96.58 154.71 92.06
  C 141.45 88.93 143.42 70.18 146.24 60.44
  Q 146.38 59.92 146.92 59.93
  L 158.98 60.03
  Q 159.48 60.04 159.38 60.52
  C 158.34 65.74 155.12 82.22 166.85 77.85
  Z"
/>
<path fill="#ffffff" d="
  M 498.79 57.90
  L 478.10 58.03
  A 0.51 0.51 0.0 0 0 477.60 58.46
  L 472.34 90.65
  A 0.51 0.51 0.0 0 1 471.83 91.08
  L 460.20 91.00
  A 0.51 0.51 0.0 0 1 459.70 90.41
  L 471.71 17.43
  A 0.51 0.51 0.0 0 1 472.21 17.00
  L 483.85 17.00
  A 0.51 0.51 0.0 0 1 484.35 17.59
  L 480.03 43.70
  A 0.51 0.51 0.0 0 0 480.53 44.30
  L 501.20 44.23
  A 0.51 0.51 0.0 0 0 501.70 43.80
  L 506.07 17.37
  A 0.51 0.51 0.0 0 1 506.58 16.95
  L 518.19 17.10
  A 0.51 0.51 0.0 0 1 518.68 17.70
  L 506.65 90.57
  A 0.51 0.51 0.0 0 1 506.15 91.00
  L 494.50 91.00
  A 0.51 0.51 0.0 0 1 494.00 90.41
  L 499.30 58.50
  A 0.51 0.51 0.0 0 0 498.79 57.90
  Z"
/>
<path fill="#ffffff" d="
  M 529.78 17.23
  C 537.73 16.57 546.11 16.93 554.01 17.13
  C 563.44 17.37 570.57 21.85 572.66 31.61
  C 576.49 49.47 569.44 82.40 549.80 89.71
  Q 546.25 91.03 539.55 91.01
  Q 528.68 90.98 517.47 91.03
  A 0.25 0.25 0.0 0 1 517.22 90.74
  L 529.27 17.70
  Q 529.34 17.27 529.78 17.23
  Z
  M 539.75 31.21
  L 532.17 77.09
  Q 532.09 77.58 532.58 77.64
  Q 540.22 78.54 544.23 77.72
  C 557.76 74.94 561.32 50.94 560.28 40.19
  C 559.13 28.17 548.60 30.85 540.42 30.66
  Q 539.85 30.64 539.75 31.21
  Z"
/>
<path fill="#ffffff" d="
  M 219.73 36.47
  C 225.53 31.05 228.60 27.42 237.49 29.29
  C 242.48 30.34 243.62 33.06 245.64 36.77
  Q 245.98 37.40 246.41 36.83
  C 251.98 29.44 260.58 25.80 268.71 31.01
  C 274.22 34.54 274.71 42.99 273.63 49.52
  Q 270.23 69.99 266.64 90.43
  Q 266.55 90.97 266.00 90.97
  L 253.37 91.01
  A 0.45 0.45 0.0 0 1 252.93 90.48
  Q 256.35 70.86 259.61 51.32
  C 260.43 46.38 258.48 40.63 252.27 43.06
  Q 246.33 45.39 245.01 53.00
  Q 241.77 71.72 238.63 90.46
  A 0.65 0.64 -85.2 0 1 238.00 91.00
  L 225.75 91.00
  Q 224.77 91.00 224.94 90.04
  Q 228.14 71.76 231.15 53.71
  C 233.91 37.13 218.97 41.33 217.05 52.51
  Q 213.78 71.45 210.59 90.42
  A 0.71 0.70 4.4 0 1 209.90 91.00
  L 197.53 91.00
  A 0.64 0.63 4.9 0 1 196.90 90.26
  L 207.09 30.77
  Q 207.18 30.25 207.71 30.25
  L 219.30 30.25
  Q 220.10 30.25 219.99 31.05
  L 219.22 36.20
  A 0.31 0.30 72.6 0 0 219.73 36.47
  Z"
/>
<path fill="#ffffff" d="
  M 363.33 71.39
  C 355.52 66.64 339.88 65.84 338.96 54.67
  C 337.45 36.32 352.66 26.08 369.53 29.48
  C 379.22 31.44 382.23 39.62 380.92 48.51
  Q 380.86 48.91 380.46 48.91
  L 368.33 49.03
  Q 367.79 49.04 367.87 48.51
  C 369.15 39.41 357.70 39.71 353.99 45.57
  A 1.29 1.28 59.5 0 0 353.80 46.31
  C 354.24 54.54 379.10 51.78 378.98 67.33
  Q 378.85 83.59 365.05 90.00
  C 351.24 96.42 330.00 91.52 333.61 71.55
  Q 333.70 71.03 334.24 71.02
  L 347.08 70.95
  A 0.60 0.60 0.0 0 1 347.67 71.66
  C 345.48 84.22 366.74 80.55 363.91 72.10
  Q 363.75 71.64 363.33 71.39
  Z"
/>
<path fill="#ffffff" d="
  M 410.68 74.88
  C 408.88 55.66 419.35 24.58 445.01 29.24
  C 456.16 31.27 459.35 41.84 458.20 51.82
  Q 458.15 52.24 457.73 52.24
  L 445.36 52.27
  Q 444.64 52.27 444.54 51.56
  C 443.71 45.64 441.94 40.20 434.24 43.76
  C 425.06 48.01 419.09 79.30 431.41 78.77
  C 436.92 78.54 440.62 73.93 441.73 68.74
  A 0.63 0.63 0.0 0 1 442.33 68.25
  L 454.74 68.25
  Q 455.37 68.25 455.24 68.86
  C 452.37 82.39 442.18 93.27 427.77 92.35
  C 417.07 91.67 411.63 85.03 410.68 74.88
  Z"
/>
<path fill="#ffffff" d="
  M 28.01 65.05
  A 1.66 1.66 0.0 0 1 26.84 63.01
  L 34.59 34.51
  A 5.42 3.00 -74.8 0 1 38.90 30.06
  L 40.22 30.42
  A 5.42 3.00 -74.8 0 1 41.69 36.44
  L 33.95 64.94
  A 1.66 1.66 0.0 0 1 31.91 66.11
  L 28.01 65.05
  Z"
/>
<path fill="#ffffff" d="
  M 309.95 84.72
  C 307.95 86.61 305.89 88.78 303.71 90.06
  C 295.75 94.74 283.57 92.65 281.44 82.54
  Q 280.49 78.04 281.47 72.03
  Q 284.84 51.43 288.32 30.84
  Q 288.42 30.25 289.02 30.25
  L 301.48 30.25
  A 0.56 0.55 5.2 0 1 302.03 30.90
  Q 298.70 49.87 295.55 68.81
  C 294.69 74.01 296.50 79.43 303.02 78.23
  C 310.21 76.91 312.67 68.53 313.68 62.49
  Q 316.34 46.60 319.19 30.73
  Q 319.28 30.25 319.76 30.25
  L 331.95 30.25
  Q 332.92 30.25 332.76 31.20
  L 322.67 90.52
  Q 322.59 90.95 322.15 90.95
  L 310.13 90.99
  A 0.52 0.51 -85.2 0 1 309.63 90.39
  L 310.52 85.02
  Q 310.69 84.02 309.95 84.72
  Z"
/>
<path fill="#ffffff" d="
  M 395.11 30.25
  L 407.50 30.25
  A 0.63 0.63 0.0 0 1 408.12 30.99
  L 398.00 90.48
  A 0.63 0.63 0.0 0 1 397.38 91.00
  L 384.91 91.00
  A 0.63 0.63 0.0 0 1 384.29 90.26
  L 394.49 30.77
  A 0.63 0.63 0.0 0 1 395.11 30.25
  Z"
/>
<rect fill="#ffffff" x="-3.95" y="-16.98" transform="translate(70.15,52.02) rotate(11.9)" width="7.90" height="33.96" rx="3.85"/>
<ellipse fill="#ffffff" cx="0.00" cy="0.00" transform="translate(26.11,44.29) rotate(104.2)" rx="6.15" ry="3.96"/>
</svg>
